@startuml
'https://plantuml.com/state-diagram

[*] --> MenuScreenState
MenuScreenState --> GameState : Enter | F1
GameState --> MenuScreenState : Esc

GameState : entry / init world

GameState --> VictoryScreenState : Player won
VictoryScreenState --> MenuScreenState : F1

VictoryScreenState --> [*] : Esc

GameState --> DefeatScreenState : Player lose
DefeatScreenState --> MenuScreenState : F1

DefeatScreenState --> [*] : Esc


MenuScreenState --> [*] : Esc

@enduml